<?xml version="1.0" encoding="UTF-8" standalone="no"?>
<!DOCTYPE svg PUBLIC "-//W3C//DTD SVG 1.1//EN" "http://www.w3.org/Graphics/SVG/1.1/DTD/svg11.dtd">
<svg width="100%" height="100%" viewBox="0 0 707 58" version="1.1" xmlns="http://www.w3.org/2000/svg" xmlns:xlink="http://www.w3.org/1999/xlink" xml:space="preserve" xmlns:serif="http://www.serif.com/" style="fill-rule:evenodd;clip-rule:evenodd;stroke-linejoin:round;stroke-miterlimit:2;">
    <g transform="matrix(1,0,0,1,-1444.486492,-95.231141)">
        <g transform="matrix(2.694711,0,0,2.694711,237.154762,-583.013121)">
            <path d="M461.79,266.287L457.014,253.327L452.91,253.327L452.91,253.471L453.63,255.463L449.214,266.479L448.038,268.303L448.038,268.447L451.758,268.447L451.758,268.303L450.846,266.383L451.782,263.695L456.822,263.695L457.83,266.407L457.254,268.303L457.254,268.447L462.918,268.447L462.918,268.303L461.79,266.287ZM452.142,262.663L454.23,256.663L456.438,262.663L452.142,262.663Z" style="fill:rgb(167,241,118);"/>
            <path d="M471.918,251.719C468.654,251.719 466.374,253.687 465.87,257.047C465.006,257.599 464.43,258.247 463.854,259.231L463.95,259.375L465.774,259.375L465.774,266.287L465.054,268.303L465.054,268.447L470.382,268.447L470.382,268.303L469.374,266.287L469.374,259.255L472.446,259.375L472.926,256.855L472.782,256.759L469.374,258.247L469.374,256.687C469.374,254.191 470.214,252.847 471.51,252.847C472.422,252.847 473.142,253.495 473.862,254.887L473.958,254.887L475.83,252.991C474.726,252.175 473.358,251.719 471.918,251.719Z" style="fill:rgb(167,241,118);"/>
            <path d="M486.87,266.287L486.87,256.831L486.726,256.759L478.638,258.223L478.638,256.591C478.638,254.167 479.43,252.823 480.798,252.823C481.854,252.823 482.67,253.495 483.39,255.007L483.558,255.007L485.526,252.895C484.398,252.151 482.718,251.719 480.966,251.719C477.678,251.719 475.566,253.687 475.134,257.047C474.27,257.599 473.694,258.247 473.118,259.231L473.214,259.375L475.038,259.375L475.038,266.287L474.318,268.303L474.318,268.447L479.646,268.447L479.646,268.303L478.638,266.287L478.638,259.183L483.27,259.375L483.27,266.287L482.55,268.303L482.55,268.447L487.59,268.447L487.59,268.303L486.87,266.287Z" style="fill:rgb(167,241,118);"/>
            <path d="M501.822,266.287L501.822,261.703C501.822,258.871 500.67,256.759 498.03,256.759C496.422,256.759 494.886,257.719 494.19,259.327L494.19,256.831L494.046,256.759L489.87,257.791L489.87,257.935L490.59,259.831L490.59,266.287L489.87,268.303L489.87,268.447L494.91,268.447L494.91,268.303L494.19,266.287L494.19,260.167C494.67,259.687 495.438,259.375 496.158,259.375C497.358,259.375 498.222,260.095 498.222,262.207L498.222,266.287L497.502,268.303L497.502,268.447L502.542,268.447L502.542,268.303L501.822,266.287Z" style="fill:rgb(167,241,118);"/>
            <path d="M507.246,255.295C508.494,255.295 509.382,254.575 509.382,253.495C509.382,252.439 508.494,251.695 507.246,251.695C506.07,251.695 505.134,252.439 505.134,253.495C505.134,254.575 506.07,255.295 507.246,255.295ZM504.87,268.447L509.91,268.447L509.91,268.303L509.19,266.287L509.19,256.831L509.046,256.759L504.87,257.791L504.87,257.935L505.59,259.831L505.59,266.287L504.87,268.303L504.87,268.447Z" style="fill:rgb(167,241,118);"/>
            <path d="M518.382,266.191C517.158,266.191 516.534,265.399 516.534,263.527L516.534,259.255L519.774,259.375L520.254,256.855L520.11,256.759L516.534,258.247L516.534,255.031L516.39,254.935C513.918,255.631 511.95,257.239 511.014,259.231L511.11,259.375L512.934,259.375L512.934,264.295C512.934,267.127 514.182,268.663 516.534,268.663C518.286,268.663 519.678,267.655 520.182,265.687L520.038,265.591C519.51,265.975 518.982,266.191 518.382,266.191Z" style="fill:rgb(167,241,118);"/>
            <path d="M533.766,257.095L530.094,257.095L530.094,257.239L530.814,259.159L529.038,266.455L528.846,266.455L525.894,259.135L526.398,257.239L526.398,257.095L521.094,257.095L521.094,257.239L522.246,259.207L525.75,268.015L525.918,268.087L528.774,267.391L528.702,267.583C527.934,269.695 526.638,270.127 525.27,270.127C524.55,270.127 523.71,269.935 523.11,269.599L522.966,269.599L521.814,272.359C522.438,272.791 523.518,273.055 524.454,273.055C527.862,273.055 528.966,270.655 530.07,267.271L532.758,259.111L533.766,257.239L533.766,257.095Z" style="fill:rgb(167,241,118);"/>
            <path d="M544.398,268.663C548.166,268.663 550.806,266.791 550.806,264.031C550.806,262.015 549.654,260.695 547.782,259.519L547.254,259.207C545.286,257.983 544.494,257.167 544.494,256.039C544.494,254.983 545.382,254.215 546.678,254.215C548.022,254.215 549.15,255.199 549.99,256.999L550.062,256.999L552.366,254.767C551.046,253.759 549.078,253.111 547.086,253.111C543.582,253.111 540.822,254.767 540.822,257.671C540.822,259.423 541.782,260.695 543.894,261.967L544.326,262.255C546.198,263.407 547.11,264.247 547.11,265.543C547.11,266.719 546.102,267.535 544.806,267.535C543.222,267.535 541.686,265.951 541.086,263.863L540.966,263.863L538.638,266.743C540.006,267.919 542.358,268.663 544.398,268.663Z" style="fill:rgb(229,229,229);"/>
            <path d="M557.094,268.663C559.398,268.663 561.414,267.271 562.35,264.679L562.158,264.583C561.078,265.735 560.214,266.191 559.014,266.191C557.598,266.191 556.83,265.063 556.83,263.287C556.83,260.527 558.198,257.791 559.686,257.791C560.43,257.791 561.03,258.415 561.39,260.119L561.486,260.119L563.598,258.319C562.782,257.407 561.558,256.879 560.046,256.879C556.206,256.879 552.99,260.239 552.99,264.631C552.99,267.103 554.43,268.663 557.094,268.663Z" style="fill:rgb(229,229,229);"/>
            <path d="M573.102,256.807C571.902,256.807 570.342,258.199 569.166,260.503L569.262,259.831L569.718,256.831L569.598,256.759L565.254,257.815L565.23,257.959L565.638,259.855L564.318,268.303L564.438,268.447L567.894,268.447L568.974,261.631C570.054,260.287 570.918,259.783 571.758,259.783C572.142,259.783 572.406,259.927 572.67,260.143L572.814,260.143L574.206,257.143C573.918,256.927 573.582,256.807 573.102,256.807Z" style="fill:rgb(229,229,229);"/>
            <path d="M578.07,255.295C579.414,255.295 580.518,254.431 580.518,253.207C580.518,252.319 579.75,251.695 578.622,251.695C577.35,251.695 576.198,252.583 576.198,253.783C576.198,254.695 576.966,255.295 578.07,255.295ZM579.174,259.831L579.63,256.831L579.51,256.759L575.166,257.815L575.142,257.959L575.55,259.855L574.614,265.783C574.326,267.727 574.95,268.735 576.39,268.735C577.878,268.735 578.886,267.727 579.462,266.167L579.318,266.071C579.126,266.215 578.934,266.335 578.766,266.335C578.214,266.335 578.214,265.783 578.358,264.871L579.174,259.831Z" style="fill:rgb(229,229,229);"/>
            <path d="M591.534,256.759C589.83,256.759 587.862,258.055 586.59,259.903L586.614,259.831L587.094,256.831L586.974,256.759L582.63,257.815L582.606,257.959L583.014,259.855L581.31,270.631L580.254,272.623L580.23,272.767L585.654,272.767L585.678,272.623L584.91,270.607L585.318,267.991C585.966,268.423 586.734,268.639 587.598,268.639C591.246,268.639 594.198,264.823 594.198,260.239C594.198,258.151 593.118,256.759 591.534,256.759ZM587.382,267.655C586.638,267.655 586.038,267.007 585.654,265.879L586.446,260.935C587.382,259.975 588.414,259.375 589.206,259.375C590.046,259.375 590.454,260.095 590.454,261.679C590.454,264.703 588.918,267.655 587.382,267.655Z" style="fill:rgb(229,229,229);"/>
            <path d="M601.206,259.351L604.014,259.231L604.902,256.855L604.782,256.783L601.35,258.295L601.878,255.031L601.758,254.935C599.43,255.415 597.15,257.119 595.71,259.447L595.758,259.591L597.582,259.519L596.79,264.415C596.358,267.199 597.318,268.663 599.55,268.663C601.422,268.663 602.886,267.511 603.606,265.423L603.462,265.351C602.862,265.927 602.166,266.239 601.518,266.239C600.534,266.239 600.246,265.423 600.558,263.383L601.206,259.351Z" style="fill:rgb(229,229,229);"/>
            <path d="M630.222,253.471L630.246,253.327L625.926,253.327L620.814,262.567L618.294,253.327L613.854,253.327L613.83,253.471L614.478,255.559L610.998,266.407L609.534,268.303L609.51,268.447L613.278,268.447L613.302,268.303L612.654,266.455L615.078,257.263L618.198,268.447L618.606,268.447L625.206,257.287L625.014,266.431L624.006,268.303L623.982,268.447L629.43,268.447L629.454,268.303L628.902,266.455L629.094,255.391L630.222,253.471Z" style="fill:rgb(229,229,229);"/>
            <path d="M643.47,266.335C642.942,266.335 642.942,265.783 643.086,264.871L644.334,256.975L644.214,256.879L641.286,257.743C640.494,257.191 639.558,256.903 638.382,256.903C634.734,256.903 631.83,260.719 631.83,265.303C631.83,267.391 632.886,268.783 634.47,268.783C636.174,268.783 638.094,267.511 639.366,265.639L639.342,265.783C639.03,267.727 639.678,268.735 641.118,268.735C642.582,268.735 643.59,267.727 644.166,266.167L644.022,266.071C643.854,266.215 643.638,266.335 643.47,266.335ZM636.822,266.167C635.958,266.167 635.574,265.447 635.574,263.863C635.574,260.839 637.062,257.887 638.598,257.887C639.342,257.887 639.942,258.511 640.326,259.663L639.534,264.607C638.598,265.567 637.59,266.167 636.822,266.167Z" style="fill:rgb(229,229,229);"/>
            <path d="M659.07,266.071C658.878,266.215 658.662,266.335 658.494,266.335C657.966,266.335 657.966,265.783 658.11,264.871L658.422,262.831L658.446,262.831L658.638,261.559C659.094,258.703 658.47,256.759 656.502,256.759C654.582,256.759 652.398,258.535 651.198,260.527L651.318,259.807L651.774,256.831L651.654,256.759L647.31,257.791L647.286,257.935L647.694,259.831L646.374,268.303L646.494,268.447L649.95,268.447L651.078,261.367C652.014,260.287 653.286,259.375 654.222,259.375C654.966,259.375 655.254,260.095 655.014,261.751L654.918,262.399L654.894,262.399L654.366,265.783C654.054,267.727 654.702,268.735 656.142,268.735C657.606,268.735 658.638,267.727 659.214,266.167L659.07,266.071Z" style="fill:rgb(229,229,229);"/>
            <path d="M672.63,266.335C672.102,266.335 672.102,265.783 672.246,264.871L673.494,256.975L673.374,256.879L670.446,257.743C669.654,257.191 668.718,256.903 667.542,256.903C663.894,256.903 660.99,260.719 660.99,265.303C660.99,267.391 662.046,268.783 663.63,268.783C665.334,268.783 667.254,267.511 668.526,265.639L668.502,265.783C668.19,267.727 668.838,268.735 670.278,268.735C671.742,268.735 672.75,267.727 673.326,266.167L673.182,266.071C673.014,266.215 672.798,266.335 672.63,266.335ZM665.982,266.167C665.118,266.167 664.734,265.447 664.734,263.863C664.734,260.839 666.222,257.887 667.758,257.887C668.502,257.887 669.102,258.511 669.486,259.663L668.694,264.607C667.758,265.567 666.75,266.167 665.982,266.167Z" style="fill:rgb(229,229,229);"/>
            <path d="M688.758,256.855L688.638,256.759L685.23,257.431C684.462,256.999 683.334,256.759 681.942,256.759C678.63,256.759 675.942,258.751 675.942,261.247C675.942,262.711 676.95,263.695 678.822,264.055C677.478,264.487 676.542,265.495 676.542,266.503C676.542,267.079 676.758,267.511 677.142,267.823C675.198,268.303 673.878,269.503 673.878,270.799C673.878,272.143 675.126,273.079 678.03,273.079C682.518,273.079 686.742,270.991 686.742,268.423C686.742,267.199 685.734,266.599 683.91,266.263L680.838,265.687C679.95,265.519 679.47,265.327 679.47,264.943C679.47,264.679 679.638,264.415 679.926,264.175C680.142,264.199 680.358,264.199 680.598,264.199C683.91,264.199 686.622,262.231 686.622,259.735C686.622,259.327 686.55,258.967 686.406,258.655L687.846,259.039L688.758,256.855ZM681.126,263.191C680.142,263.191 679.542,262.231 679.542,260.791C679.542,259.207 680.238,257.767 681.414,257.767C682.398,257.767 683.022,258.775 683.022,260.215C683.022,261.799 682.302,263.191 681.126,263.191ZM681.798,268.999C682.806,269.167 683.262,269.503 683.262,270.055C683.262,271.183 681.798,272.071 679.95,272.071C678.054,272.071 677.238,271.135 677.238,270.031C677.238,269.287 677.55,268.711 678.126,268.279C678.174,268.303 678.246,268.303 678.318,268.327L681.798,268.999Z" style="fill:rgb(229,229,229);"/>
            <path d="M694.71,266.191C693.246,266.191 692.406,265.135 692.358,263.383C696.678,262.951 699.102,261.031 699.102,259.039C699.102,257.671 697.878,256.879 696.078,256.879C691.878,256.879 688.494,260.287 688.494,264.511C688.494,267.175 690.222,268.663 692.79,268.663C695.382,268.663 697.35,267.151 698.19,264.631L698.046,264.535C697.014,265.687 696.006,266.191 694.71,266.191ZM695.31,257.767C695.862,257.767 696.246,258.007 696.246,258.847C696.246,260.311 694.974,261.847 692.382,262.687C692.526,260.095 693.87,257.767 695.31,257.767Z" style="fill:rgb(229,229,229);"/>
            <path d="M709.158,256.807C707.958,256.807 706.398,258.199 705.222,260.503L705.318,259.831L705.774,256.831L705.654,256.759L701.31,257.815L701.286,257.959L701.694,259.855L700.374,268.303L700.494,268.447L703.95,268.447L705.03,261.631C706.11,260.287 706.974,259.783 707.814,259.783C708.198,259.783 708.462,259.927 708.726,260.143L708.87,260.143L710.262,257.143C709.974,256.927 709.638,256.807 709.158,256.807Z" style="fill:rgb(229,229,229);"/>
        </g>
    </g>
</svg>
